<?xml version="1.0" encoding="UTF-8" standalone="no"?>
<svg
   xmlns:dc="http://purl.org/dc/elements/1.1/"
   xmlns:cc="http://creativecommons.org/ns#"
   xmlns:rdf="http://www.w3.org/1999/02/22-rdf-syntax-ns#"
   xmlns:svg="http://www.w3.org/2000/svg"
   xmlns="http://www.w3.org/2000/svg"
   xmlns:sodipodi="http://sodipodi.sourceforge.net/DTD/sodipodi-0.dtd"
   xmlns:inkscape="http://www.inkscape.org/namespaces/inkscape"
   width="100mm"
   height="69.133003mm"
   viewBox="0 0 100 69.133003"
   version="1.1"
   id="svg8"
   inkscape:version="1.0.1 (3bc2e813f5, 2020-09-07)"
   sodipodi:docname="jetpack.svg">
  <defs
     id="defs2" />
  <sodipodi:namedview
     id="base"
     pagecolor="#ffffff"
     bordercolor="#666666"
     borderopacity="1.0"
     inkscape:pageopacity="0.0"
     inkscape:pageshadow="2"
     inkscape:zoom="1.4"
     inkscape:cx="67.646521"
     inkscape:cy="214.94705"
     inkscape:document-units="mm"
     inkscape:current-layer="layer2"
     inkscape:document-rotation="0"
     showgrid="false"
     inkscape:window-width="1920"
     inkscape:window-height="1017"
     inkscape:window-x="-8"
     inkscape:window-y="-8"
     inkscape:window-maximized="1"
     inkscape:snap-nodes="false" />
  <metadata
     id="metadata5">
    <rdf:RDF>
      <cc:Work
         rdf:about="">
        <dc:format>image/svg+xml</dc:format>
        <dc:type
           rdf:resource="http://purl.org/dc/dcmitype/StillImage" />
        <dc:title></dc:title>
      </cc:Work>
    </rdf:RDF>
  </metadata>
  <g
     inkscape:groupmode="layer"
     id="layer2"
     inkscape:label="main-trace"
     style="display:inline;opacity:1">
    <path
       id="path850"
       style="fill:#271100;fill-opacity:1;stroke:#000000;stroke-width:0;stroke-linecap:butt;stroke-linejoin:miter;stroke-miterlimit:4;stroke-dasharray:none;stroke-opacity:1"
       d="M 66.0401,5.0002497e-7 66.161101,12.735449 51.060914,12.068516 l -17.888905,3.759571 -7.52008,7.034183 -1.576804,0.6069 -0.908938,-1.819755 3.395617,-2.42571 v -1.030878 l -4.487464,1.516771 -2.364741,1.636837 0.363013,1.697811 0.181972,1.334799 h 0.606896 l 0.363954,1.030877 -1.637778,0.484957 v 2.486679 l -3.092639,0.363013 -0.545925,0.66787 0.06097,4.426495 -7.7020524,7.095156 -2.000786,1.940758 0.605959,1.212855 c -0.218372,2.466863 -1.557781,4.629129 -1.627462,7.224602 L 2.4866826,53.365625 2.3047066,55.06343 0.66786764,56.216252 1.0918516,58.520023 6.3569526e-7,59.429898 0.72790064,60.763755 H 1.3347966 l 3.39562,3.760508 1.273827,-0.545926 4.0625474,2.607686 1.152822,-1.273824 1.757844,-0.423986 3.153612,1.212854 0.727898,-1.394826 -3.031668,-0.97085 -3.153613,0.30392 -0.242946,-0.788872 -0.6669294,-0.666933 0.9098754,-0.727899 2.728689,1.091852 1.394832,-0.545925 2.182762,0.666928 1.152822,-0.727898 -0.424918,-1.030882 1.81975,-2.243733 -0.06097,-2.182768 0.242946,-3.759567 -1.212854,-3.638565 1.575867,-0.909875 0.06097,-2.607686 0.727897,-0.363948 0.24201,2.061755 1.212855,0.302979 0.424924,0.6069 -1.455801,3.335586 -0.60596,4.547502 0.484952,1.212855 0.545927,-0.908939 2.122729,-0.363949 1.515835,0.423982 0.181977,0.909875 1.394832,-0.727897 -0.363953,-3.456592 -0.78793,-2.971636 -0.849842,-2.42571 v -0.363949 l 1.576804,-0.06003 0.424923,-0.545925 -0.181978,-1.394832 6.670233,-0.30298 2.304707,0.969909 v 3.396559 l 0.121003,1.757843 0.485893,0.485894 0.121008,0.969908 -0.30298,0.605954 0.787931,0.788873 0.545926,5.215373 1.455802,0.302979 -0.545927,2.546712 0.06003,2.911603 0.424923,3.152671 0.423982,0.121944 3.456592,-0.06097 -0.06003,-0.484956 0.848901,-0.242946 -0.36395,-3.092638 -1.091852,-3.031669 -0.726961,-1.273824 -0.303916,-0.727904 1.455801,-0.363948 -0.666929,-5.639355 0.30298,-0.484952 v -1.576808 h 0.909875 l 0.545926,0.423986 0.181972,1.515829 -0.849842,0.606901 0.788873,0.909875 0.181977,3.759567 0.787931,0.606896 0.788872,-0.121939 0.06003,0.484952 -1.030882,2.850632 -0.302975,1.697812 -0.242947,3.153607 v 0.545926 h 0.606896 v 0.727903 l 3.577595,0.242005 0.121939,-0.909875 1.030882,0.06098 0.181972,-2.486684 -0.727897,-2.121794 -0.545927,-2.243732 -0.787937,-1.698748 v -0.363013 l 1.697812,-0.06097 -0.242946,-4.608478 0.242946,-1.4558 1.272889,1.576808 1.030882,1.940753 h 2.547649 l 0.605958,-1.273824 2.122731,-2.607686 2.728688,-2.243738 2.789664,-1.879783 2.000786,-0.909875 3.396559,-0.545927 1.515834,0.181977 -0.545926,2.789659 -0.423983,1.394832 -0.363948,2.304707 0.242005,1.394827 0.727903,-0.06097 0.484952,-0.848906 3.032609,-0.121003 0.484952,0.969909 1.485818,-0.363949 -0.30298,-4.305499 -1.06183,-3.274609 2.304702,-0.424924 0.39397,2.183704 -0.75792,2.121789 -0.24201,1.182839 0.09099,1.515833 0.605959,0.394907 h 0.242947 l 0.03002,-1.182838 1.637778,-0.575942 1.15188,0.06003 1.18284,0.667871 -0.42493,0.544983 v 1.364816 l 1.0609,-0.393966 1.06184,-0.879863 -0.21293,-3.334649 0.36395,-0.788867 -0.30298,-1.151885 0.57594,-1.333857 0.21293,-1.425786 0.27202,-1.060898 1.28884,-0.36395 1.07685,3.941544 1.18189,2.304707 0.84984,0.575943 -0.031,5.912313 1.03088,0.333937 h 0.51591 l 0.121,0.878917 -1.24287,4.093505 -0.27296,2.031743 -0.21199,1.788799 0.63597,-0.06003 1.75878,-0.03093 1.48582,0.242947 0.78887,-0.03002 0.72696,-0.21293 0.39491,-0.211993 -0.51591,-3.790525 -0.63692,-2.606745 -0.66692,-1.364815 -0.39397,-0.484952 0.091,-0.363954 1.69781,-0.211989 -0.15195,-5.15534 0.63691,-0.121002 0.45494,5.306358 1.69781,0.242005 -0.66692,1.789739 -0.42399,3.061685 -0.15196,2.729626 0.15196,1.181902 0.60595,0.121939 0.33393,0.635976 3.4566,-0.06003 0.27296,-1.182838 0.9699,-0.666929 -0.45493,-3.032605 -0.99993,-2.243738 -0.97084,-1.636836 -0.03,-0.636912 1.42485,-0.787937 -0.39397,-2.789658 -0.39396,-3.03261 0.30297,-0.423982 1.78879,0.817953 0.727897,-0.635976 -2.001717,-1.364815 0.90988,-0.514969 -0.7279,-2.880649 -1.48581,-4.821403 -0.18198,-1.000865 0.78886,-0.272963 v -1.727824 l -0.03,-1.546792 -1.33479,-1.818814 -1.81882,0.211994 -0.8189,-2.182763 -1.00086,-0.181976 0.15197,-0.636914 0.81888,-0.15196 v -0.423982 l 0.091,-0.970845 0.33299,-0.757918 -0.18197,-1.667791 -3.00165,-1.84883 -1.57681,-0.909875 -1.21285,-0.51591 -0.51497,-2.031744 -1.18284,-0.999924 -2.27376,0.06003 -1.03087,-1.181902 -1.30385,-0.970849 0.333,-1.090911 -2.42571,-2.425709 -1.30384,-0.939892 L 76.773823,14.03932 75.621934,13.008455 67.594388,12.737364 66.889004,4.2500025e-5 Z M 19.989128,33.893341 l 0.665051,0.557183 -0.128505,0.578757 -3.323396,1.715629 -1.587119,0.792623 0.343312,-1.500826 1.457679,-1.993283 z m -4.931153,2.679913 0.12851,0.02156 -1.050579,2.593615 -1.886353,1.672487 -0.965216,0.06473 -0.235445,-0.600332 z m 12.458735,2.087085 0.54592,0.105996 0.408979,0.818889 -0.83296,0.469944 -0.879859,-0.166964 -0.04505,-0.348946 z m 67.642223,1.60026 0.64349,0.578752 1.4361,5.039025 -4.13759,-4.438695 z m -3.94435,1.479247 0.49246,0.150083 -1.28603,4.073808 -1.22223,0.815134 -2.35818,-2.444469 -0.0431,-1.222234 0.57876,-1.007432 z m -59.649399,0.08911 1.788797,0.332995 -0.121939,0.81889 -2.440718,0.181972 -3.289623,0.07598 -0.742911,-0.848905 2.5167,-0.545926 z m 61.257149,0.147268 4.50249,4.931152 -0.4934,0.128509 -3.68735,-1.050577 -2.31596,0.278591 1.35075,-4.202314 z m -7.78272,3.795217 2.25124,1.07121 -0.94364,0.900496 -0.9005,-0.600331 z m -75.8132864,0.685687 1.4145284,0.514973 0.0863,0.771046 -1.0721524,1.115303 z m -1.715628,0.12851 1.372316,4.417115 -1.072152,0.300166 h -1.157513 z m 6.1318084,0 1.029945,0.428674 0.08536,0.943642 0.900496,1.072152 -0.943643,1.543977 -0.814202,-2.230606 z m -1.971706,1.286959 h 1.029 l 0.857348,2.915353 -1.286018,0.300166 -2.144308,0.04313 0.300165,-1.800992 z m 40.269977,2.430397 1.697806,0.21293 0.03002,4.093504 -0.757914,-2.27469 -1.121868,-0.03002 z" />
    <path
       style="fill:#4e1f00;fill-opacity:1;stroke:#000000;stroke-width:0;stroke-linecap:butt;stroke-linejoin:miter;stroke-miterlimit:4;stroke-dasharray:none;stroke-opacity:1"
       d="m 88.265563,25.70518 -0.57611,2.637952 0.18193,1.243176 -0.12129,1.394773 -0.75803,0.788354 -0.33353,1.121887 -0.60643,0.394177 -0.091,0.242568 -0.90964,0.545786 0.0606,0.636744 0.42449,0.151603 1.24318,-1.243168 0.36385,0.485138 -0.4245,0.697393 -0.66707,0.75803 0.0303,0.515461 0.90964,0.363854 1.21285,-1.576708 0.18193,1.212854 0.30321,0.06064 0.69739,-1.243169 0.27289,0.121289 -0.091,1.697988 -0.849,0.75803 6.76164,1.000602 -0.21224,1.81928 0.33353,0.636744 1.66767,-0.515463 v -3.062443 l -1.33414,-1.879923 -0.51546,0.151603 -0.27289,0.667067 v 0.818674 l -4.24498,-0.515464 -0.1516,-0.970277 0.75804,-0.45482 0.87931,0.242572 0.0303,-0.363858 -0.87931,-1.061245 -0.4245,-0.697387 0.78835,-1.212851 -0.27289,-0.818677 -0.0303,-0.75803 0.33353,-0.363854 0.21225,-0.394175 -0.27289,-0.45482 -1.0006,-0.424497 -0.18193,-0.303215 v -0.909633 l 0.0606,-0.667067 z"
       id="path902" />
    <path
       style="fill:#602600;fill-opacity:0.690196;stroke:#000000;stroke-width:0;stroke-linecap:butt;stroke-linejoin:miter;stroke-miterlimit:4;stroke-dasharray:none;stroke-opacity:1"
       d="m 67.738064,22.157591 -4.366261,-0.485138 -1.576708,0.121291 -0.667067,-1.57671 1.758637,0.181929 1.33413,-0.606423 -0.424496,-0.788356 -1.212849,-0.121289 0.363853,-0.545782 1.81928,0.242572 0.181924,-1.091563 1.152212,-0.545788 0.848992,-0.970278 0.424499,0.363853 -1.273491,1.455423 2.72891,1.879918 0.303215,-0.545783 -2.12249,-1.394777 0.06064,-0.303211 2.668272,0.72771 0.970283,3.699192 0.667063,-0.121289 0.788353,0.424493 -1.03092,1.091571 -0.90964,0.485139 0.303215,1.091563 -0.242573,0.18193 -0.545781,-1.152208 -0.606425,1.758632 15.160632,0.848997 0.0607,-0.788353 -2.97149,-0.606426 v -1.576708 l 4.48755,0.121291 0.60642,-0.424496 0.66707,0.424496 -0.84899,0.545781 0.18192,1.819279 0.72771,0.545783 -0.78835,0.424496 v 6.003612 h -4.0024 l 0.12127,-1.637351 1.21285,0.06064 0.849,-0.545782 0.0606,-0.48514 -1.81928,-0.181928 -0.36385,-3.214054 -0.66707,0.424497 -0.12129,2.8502 -0.54579,-1.091564 -0.36385,0.606426 -13.159431,-0.06064 -1.455423,-3.092769 -0.545782,2.304413 -1.697989,0.606426 -0.72771,-0.848998 -0.303211,-1.819275 0.303211,-0.909635 0.121289,-0.606423 -0.848998,-0.06064 0.18193,-0.788355 5.700396,0.788355 0.48514,-1.334137 0.727711,-1.21285 -0.485139,-0.06064 -0.485139,0.606426 z"
       id="path904" />
    <path
       style="fill:#4e1f00;fill-opacity:1;stroke:#000000;stroke-width:0;stroke-linecap:butt;stroke-linejoin:miter;stroke-miterlimit:4;stroke-dasharray:none;stroke-opacity:1"
       d="m 63.493089,29.49534 -0.848996,1.212849 -0.424496,0.606425 0.121289,0.727712 -0.909635,1.091569 -2.425704,1.273492 1.576707,0.30321 0.667069,2.728915 2.122488,-0.606425 1.576704,0.06064 1.334136,-0.424501 0.485145,-1.455416 -1.819281,-2.061847 -0.545782,-1.758631 z"
       id="path906" />
    <path
       id="path910"
       style="fill:#4e1f00;fill-opacity:1;stroke:#000000;stroke-width:0;stroke-linecap:butt;stroke-linejoin:miter;stroke-miterlimit:4;stroke-dasharray:none;stroke-opacity:1"
       d="m 50.757935,12.818281 -9.580894,2.789663 -0.545927,1.879783 -0.666928,0.606896 0.06003,-2.182763 -2.425714,0.848906 -0.787931,1.75784 -1.212854,0.424923 0.121002,-2.304707 -2.607686,0.121944 -2.243734,2.849692 -1.576803,1.940757 -2.728694,3.274615 2.910667,0.848906 -0.423983,0.970845 -9.278856,2.667719 -2.728689,0.181972 -0.787936,0.848906 -0.181972,2.728689 h 0.302975 l 1.030882,-2.970694 0.423983,1.030877 0.909875,0.423982 -0.121003,0.909875 -0.970849,-0.302978 -0.181036,0.666933 0.908938,0.909875 2.304707,-0.606896 v -0.363954 l -0.969908,0.06098 0.06003,-1.212855 2.12273,1.515834 5.215368,-1.697811 0.363954,0.181977 1.333857,-0.363954 0.181978,-1.273825 -1.637779,0.36395 1.819751,-1.333858 0.727903,-2.183704 0.605958,0.303921 -1.090915,4.366462 3.213646,0.30298 0.605958,1.333862 1.030879,-0.242946 0.242945,-1.515835 V 30.28415 l 2.910667,2.485742 23.954119,-1.030878 0.60596,-1.151885 -1.030878,-0.06097 -0.726967,0.181972 h -5.155335 l -0.30298,-1.091847 -1.030882,0.06097 -0.8489,1.030878 -0.545927,0.06098 -0.787936,-0.97085 -0.545925,0.121944 -0.30298,1.454865 -11.15864,0.666928 -0.727902,-1.212854 0.909879,0.242946 0.06097,-1.940757 -1.212855,-1.091852 2.72869,-3.456588 2.425709,0.485894 0.605958,-0.909876 -1.272887,-0.363954 0.545926,-0.787931 2.243732,0.363012 0.60596,-0.484957 -0.969909,-1.212854 1.212855,-0.969908 h -2.668655 l 0.363948,-1.152822 6.6102,-6.185281 1.212855,2.183704 0.302979,0.06003 0.666933,-1.940758 0.181973,0.485894 0.363949,-0.06097 0.242947,-1.212855 z m -10.733716,10.855664 -0.06003,1.272887 -2.001727,1.516772 0.06097,-1.273825 z m -5.761298,1.454865 0.121943,4.730416 -0.666928,0.363949 v -4.002518 z" />
    <path
       style="fill:#4e1f00;fill-opacity:1;stroke:#000000;stroke-width:0;stroke-linecap:butt;stroke-linejoin:miter;stroke-miterlimit:4;stroke-dasharray:none;stroke-opacity:1"
       d="m 9.1833146,56.194704 -2.058278,0.77185 0.128641,0.643209 1.415065,-0.343042 0.08577,0.600331 -0.643213,0.943373 5.2314524,0.943378 2.31556,1.629469 1.200662,0.343044 0.728974,0.300164 1.92963,-2.186915 -0.171517,-2.27268 -1.157777,0.857613 -0.04289,-0.728968 -3.730625,-0.771857 -0.986258,0.857617 -1.500826,-2.529966 0.943379,-0.943377 -2.830131,-0.514566 0.643214,1.372184 -0.471691,0.257282 -0.2572834,-0.686091 -0.857613,0.471687 z"
       id="path918" />
    <path
       style="fill:#4e1f00;fill-opacity:1;stroke:#000000;stroke-width:0;stroke-linecap:butt;stroke-linejoin:miter;stroke-miterlimit:4;stroke-dasharray:none;stroke-opacity:1"
       d="m 53.90793,17.344748 -0.643211,-1.929634 3.430459,-2.144035 1.586588,1.200661 2.658602,-0.343049 0.514571,0.686093 -4.202313,1.843873 1.972513,1.843868 -0.385927,-1.586585 0.686092,-0.471687 0.814734,0.771851 2.358444,-1.715231 2.529961,1.672353 -0.771852,0.385926 v 0.857613 l -2.229801,-0.257281 -0.343042,0.68609 1.715231,0.557447 -0.514571,0.385927 -1.243544,0.343047 -0.857612,-0.08577 -0.428809,0.428803 -5.574495,-5.18857 -1.157783,0.771857 z"
       id="path838" />
    <path
       style="fill:#a16a44;fill-opacity:0.545098;stroke:#000000;stroke-width:0;stroke-linecap:butt;stroke-linejoin:miter;stroke-miterlimit:4;stroke-dasharray:none;stroke-opacity:1"
       d="m 37.055796,47.940155 -0.62177,3.044536 4.395275,-1.54371 -1.972513,-2.572843 -0.385925,1.307866 -0.857618,0.19296 z"
       id="path840" />
  </g>
  <g
     inkscape:groupmode="layer"
     id="layer3"
     inkscape:label="retro-engines"
     style="display:inline;opacity:1" />
</svg>
