<?xml version="1.0" encoding="UTF-8" standalone="no"?>
<svg
   xmlns:dc="http://purl.org/dc/elements/1.1/"
   xmlns:cc="http://creativecommons.org/ns#"
   xmlns:rdf="http://www.w3.org/1999/02/22-rdf-syntax-ns#"
   xmlns:svg="http://www.w3.org/2000/svg"
   xmlns="http://www.w3.org/2000/svg"
   xmlns:xlink="http://www.w3.org/1999/xlink"
   xmlns:sodipodi="http://sodipodi.sourceforge.net/DTD/sodipodi-0.dtd"
   xmlns:inkscape="http://www.inkscape.org/namespaces/inkscape"
   width="100mm"
   height="48.783001mm"
   viewBox="0 0 100 48.783001"
   version="1.1"
   id="svg8"
   inkscape:version="1.0.1 (3bc2e813f5, 2020-09-07)"
   sodipodi:docname="mars-surface.svg">
  <defs
     id="defs2">
    <linearGradient
       inkscape:collect="always"
       id="linearGradient956">
      <stop
         style="stop-color:#512503;stop-opacity:1"
         offset="0"
         id="stop952" />
      <stop
         style="stop-color:#a9652d;stop-opacity:1"
         offset="1"
         id="stop954" />
    </linearGradient>
    <linearGradient
       inkscape:collect="always"
       id="linearGradient920">
      <stop
         style="stop-color:#905e2c;stop-opacity:1"
         offset="0"
         id="stop916" />
      <stop
         style="stop-color:#522e0c;stop-opacity:1"
         offset="1"
         id="stop918" />
    </linearGradient>
    <linearGradient
       inkscape:collect="always"
       id="linearGradient912">
      <stop
         style="stop-color:#b67635;stop-opacity:1"
         offset="0"
         id="stop908" />
      <stop
         style="stop-color:#5b3713;stop-opacity:1"
         offset="1"
         id="stop910" />
    </linearGradient>
    <linearGradient
       inkscape:collect="always"
       id="linearGradient896">
      <stop
         style="stop-color:#b67635;stop-opacity:1"
         offset="0"
         id="stop892" />
      <stop
         style="stop-color:#3f2308;stop-opacity:1"
         offset="1"
         id="stop894" />
    </linearGradient>
    <linearGradient
       inkscape:collect="always"
       id="linearGradient888">
      <stop
         style="stop-color:#69411a;stop-opacity:1"
         offset="0"
         id="stop884" />
      <stop
         style="stop-color:#ae6720;stop-opacity:1"
         offset="1"
         id="stop886" />
    </linearGradient>
    <linearGradient
       inkscape:collect="always"
       id="linearGradient880">
      <stop
         style="stop-color:#422c1c;stop-opacity:1"
         offset="0"
         id="stop876" />
      <stop
         style="stop-color:#ff9b53;stop-opacity:1"
         offset="1"
         id="stop878" />
    </linearGradient>
    <linearGradient
       inkscape:collect="always"
       xlink:href="#linearGradient880"
       id="linearGradient882"
       x1="47.530506"
       y1="-4.5357141"
       x2="48.475445"
       y2="37.136162"
       gradientUnits="userSpaceOnUse" />
    <linearGradient
       inkscape:collect="always"
       xlink:href="#linearGradient888"
       id="linearGradient890"
       x1="2.0788691"
       y1="27.214285"
       x2="-0.47247022"
       y2="38.459076"
       gradientUnits="userSpaceOnUse" />
    <linearGradient
       inkscape:collect="always"
       xlink:href="#linearGradient896"
       id="linearGradient898"
       x1="52.401531"
       y1="27.061039"
       x2="52.468349"
       y2="29.115673"
       gradientUnits="userSpaceOnUse" />
    <linearGradient
       inkscape:collect="always"
       xlink:href="#linearGradient912"
       id="linearGradient914"
       x1="58.586308"
       y1="27.521391"
       x2="58.586308"
       y2="28.702566"
       gradientUnits="userSpaceOnUse" />
    <linearGradient
       inkscape:collect="always"
       xlink:href="#linearGradient920"
       id="linearGradient922"
       x1="22.717909"
       y1="24.121075"
       x2="22.517458"
       y2="32.005527"
       gradientUnits="userSpaceOnUse" />
    <linearGradient
       inkscape:collect="always"
       xlink:href="#linearGradient956"
       id="linearGradient930"
       x1="-1.3229172"
       y1="33.828869"
       x2="100.44717"
       y2="48.75893"
       gradientUnits="userSpaceOnUse" />
  </defs>
  <sodipodi:namedview
     id="base"
     pagecolor="#ffffff"
     bordercolor="#666666"
     borderopacity="1.0"
     inkscape:pageopacity="0.0"
     inkscape:pageshadow="2"
     inkscape:zoom="1.4"
     inkscape:cx="185.15518"
     inkscape:cy="159.93697"
     inkscape:document-units="mm"
     inkscape:current-layer="layer2"
     inkscape:document-rotation="0"
     showgrid="false"
     inkscape:window-width="1920"
     inkscape:window-height="1017"
     inkscape:window-x="-8"
     inkscape:window-y="-8"
     inkscape:window-maximized="1"
     inkscape:snap-nodes="false" />
  <metadata
     id="metadata5">
    <rdf:RDF>
      <cc:Work
         rdf:about="">
        <dc:format>image/svg+xml</dc:format>
        <dc:type
           rdf:resource="http://purl.org/dc/dcmitype/StillImage" />
        <dc:title />
      </cc:Work>
    </rdf:RDF>
  </metadata>
  <g
     inkscape:groupmode="layer"
     id="layer2"
     inkscape:label="mars-surface"
     style="display:inline;opacity:1"
     sodipodi:insensitive="true">
    <path
       style="fill:url(#linearGradient882);fill-opacity:1;stroke:#000000;stroke-width:0.264583px;stroke-linecap:butt;stroke-linejoin:miter;stroke-opacity:1"
       d="M -1.7953869,-4.2522319 -0.85044641,37.136159 104.22693,39.215028 103.1875,-5.0081843 Z"
       id="path870" />
    <path
       style="fill:url(#linearGradient922);fill-opacity:1;stroke:#000000;stroke-width:0;stroke-linecap:butt;stroke-linejoin:miter;stroke-miterlimit:4;stroke-dasharray:none;stroke-opacity:1"
       d="m 2.5390605,29.33283 4.8776688,-1.603616 3.0735997,-0.868627 1.469982,-0.935443 1.069078,-0.601357 2.138157,-0.467721 2.004521,-0.734991 2.004521,-0.133635 3.140417,-0.400905 2.405426,0.868626 0.668174,0.133635 h 1.5368 l 3.875407,1.403165 3.608139,0.601357 h 4.543581 l 5.078122,0.334087 h 1.837478 l 1.102487,0.100227 h 1.937702 l 1.670437,0.133633 1.302938,-0.300678 1.169304,-0.50113 0.935443,-0.03341 1.737251,0.634766 1.403168,0.835215 1.202711,0.367496 h 1.169305 1.336347 l 0.968851,-0.434311 0.567949,-0.267271 1.069078,-0.133634 1.169305,0.200451 2.037929,-0.03341 1.135896,-0.20045 0.835216,-0.200454 0.634767,0.30068 0.367496,0.167042 0.801806,-0.03341 0.601358,0.233863 0.434314,-0.434314 0.634764,0.167042 0.534538,-0.434313 0.801809,-0.23386 1.503392,-0.701582 0.868624,-0.334087 0.701583,-0.100226 0.801809,0.434313 h 0.467722 l 0.467723,0.167043 0.46772,0.300679 1.369756,-0.03341 1.5368,-0.200452 h 0.7684 l 0.501132,-0.300678 0.801806,-0.03341 0.601358,-0.03341 0.434311,-0.367495 0.701585,0.06682 0.935443,0.300678 1.603615,-0.167043 1.035672,-0.26727 2.037929,0.434313 1.002261,-0.334087 1.202713,-0.300678 0.835216,-0.334087 1.971114,-0.400904 1.503392,0.367495 2.071338,1.369757 1.102485,0.668175 1.46998,1.737251 0.30068,2.171565 L 57.563173,34.2105 17.60638,33.508915 0.93544333,33.609142 Z"
       id="path868" />
    <path
       style="fill:#905e2c;fill-opacity:1;stroke:#000000;stroke-width:0;stroke-linecap:butt;stroke-linejoin:miter;stroke-miterlimit:4;stroke-dasharray:none;stroke-opacity:1"
       d="m 58.164531,31.303944 24.555386,-1.135896 -4.643808,-1.00226 h -2.204974 l -3.541321,0.400902 -1.23612,0.367495 -1.035672,0.400905 -1.135893,0.200454 -0.968854,0.03341 -0.902033,-0.367496 -1.236123,-0.100227 -1.336347,0.100227 -2.472243,0.634764 -1.269531,-0.03341 -0.23386,-0.267268 -0.701582,-0.233863 -1.135896,-0.03341 c 0,0 -0.367496,-0.03341 -0.567947,0.06682 -0.200454,0.100227 -1.369756,0.835218 -1.369756,0.835218 z"
       id="path862" />
    <path
       style="fill:#905e2c;fill-opacity:1;stroke:#000000;stroke-width:0;stroke-linecap:butt;stroke-linejoin:miter;stroke-miterlimit:4;stroke-dasharray:none;stroke-opacity:1"
       d="m 31.270535,32.6737 1.436574,-1.57021 2.53906,-0.367495 2.839739,0.100226 h 1.637024 l 2.939966,0.23386 1.503391,-0.06682 2.171565,-0.668173 2.104748,-0.300678 h 2.839738 l 2.973374,0.501132 2.104747,1.135896 z"
       id="path860" />
    <path
       style="fill:url(#linearGradient890);fill-opacity:1;stroke:#000000;stroke-width:0;stroke-linecap:butt;stroke-linejoin:miter;stroke-miterlimit:4;stroke-dasharray:none;stroke-opacity:1"
       d="m -2.3386083,25.724692 3.07359949,0.601356 3.20723431,0.668175 3.6081385,1.00226 3.207234,1.603616 2.80633,0.601358 3.875408,0.734991 4.009043,0.801807 6.481286,0.267271 6.614922,-0.06682 9.68852,-0.133635 6.414469,-0.668174 4.142676,0.200454 3.674957,-0.734992 h 4.209494 l 3.474503,-0.267271 h 5.211757 l 5.412208,-0.801807 4.476763,-0.334089 3.006784,0.334089 h 1.804069 l 1.937702,0.267269 h 2.873148 l 2.873147,0.400905 2.939966,0.133633 h 2.605878 l 1.870892,-0.46772 3.40768,-0.06682 0.13364,22.717908 -107.1082657,-0.200451 z"
       id="path858" />
    <path
       style="fill:#533a26;fill-opacity:1;stroke:#000000;stroke-width:0;stroke-linecap:butt;stroke-linejoin:miter;stroke-miterlimit:4;stroke-dasharray:none;stroke-opacity:1"
       d="m -1.7008928,35.104538 0.094494,8.598958 47.2470228,-9.307663 -10.15811,-1.228423 -9.921875,0.566965 -8.268229,0.472469 -6.425595,-0.04725 -9.87462751,1.181177 z"
       id="path854" />
    <path
       style="fill:#7a3c0f;fill-opacity:1;stroke:#000000;stroke-width:0;stroke-linecap:butt;stroke-linejoin:miter;stroke-miterlimit:4;stroke-dasharray:none;stroke-opacity:1"
       d="M 5.9531249,36.521948 17.481398,36.427455 H 27.78125 L 38.837052,34.915549 24.332217,34.726562 6.4255951,35.71875 3.3072916,36.569194 Z"
       id="path856" />
    <path
       style="fill:#422c1c;fill-opacity:1;stroke:#000000;stroke-width:0;stroke-linecap:butt;stroke-linejoin:miter;stroke-miterlimit:4;stroke-dasharray:none;stroke-opacity:1"
       d="m 72.69731,34.611402 9.020347,-0.935442 7.216277,0.467722 11.158506,0.734992 2.00452,0.334086 -0.33409,9.287616 z"
       id="path852" />
    <path
       style="fill:#422b1b;fill-opacity:1;stroke:#000000;stroke-width:0;stroke-linecap:butt;stroke-linejoin:miter;stroke-miterlimit:4;stroke-dasharray:none;stroke-opacity:1"
       d="m -0.73499119,44.700827 0.13363477,-6.013564 22.18337042,-1.937705 8.485807,-0.06681 z"
       id="path850" />
    <path
       style="fill:url(#linearGradient930);fill-opacity:1;stroke:#000000;stroke-width:0;stroke-linecap:butt;stroke-linejoin:miter;stroke-miterlimit:4;stroke-dasharray:none;stroke-opacity:1"
       d="m -2.6058779,41.894498 8.3521727,-2.672694 5.8131122,-0.868627 5.879929,-1.002261 5.412208,-1.00226 7.550364,-1.202713 5.6943,-0.458225 5.604554,-0.601358 9.826904,0.258589 7.704958,-0.618962 10.993833,0.562217 6.504215,0.577037 6.791054,0.01343 8.953529,2.739511 8.018085,3.741775 -0.13363,7.951266 -102.0969619,-0.06681 z"
       id="path848"
       sodipodi:nodetypes="cccccccccccccccccc" />
    <path
       style="fill:url(#linearGradient898);fill-opacity:1;stroke:#000000;stroke-width:0;stroke-linecap:butt;stroke-linejoin:miter;stroke-miterlimit:4;stroke-dasharray:none;stroke-opacity:1"
       d="m 47.483257,28.560826 2.574964,-0.944941 1.393786,-0.472469 1.13393,-0.472472 0.519716,0.637837 0.354353,0.283479 1.039435,0.0945 1.370163,0.07087 1.393788,0.354354 -6.378348,0.637833 -3.260045,0.283483 -2.574962,0.212611 z"
       id="path864" />
    <path
       style="fill:url(#linearGradient914);fill-opacity:1;stroke:#000000;stroke-width:0;stroke-linecap:butt;stroke-linejoin:miter;stroke-miterlimit:4;stroke-dasharray:none;stroke-opacity:1"
       d="m 63.443103,28.597838 -1.954408,0.133636 -1.035669,-0.467722 -0.7684,-0.551244 -0.785104,-0.267269 -1.236123,-0.03341 -0.801809,0.434314 -0.167042,0.100224 -0.601358,0.451019 -1.202711,0.334087 3.390982,-0.06682 1.570207,-0.11693 2.037932,0.35079 z"
       id="path866" />
    <path
       style="fill:#9e5d28;fill-opacity:1;stroke:#000000;stroke-width:0;stroke-linecap:butt;stroke-linejoin:miter;stroke-miterlimit:4;stroke-dasharray:none;stroke-opacity:1"
       d="m 85.008788,37.264555 c 0,0 0.116886,2.768731 -0.428411,3.990286 -0.59173,1.325575 -1.757657,2.35843 -2.913103,3.237201 -0.950022,0.722538 -2.116954,1.10595 -3.20469,1.597309 -1.225101,0.553411 -2.489094,1.016364 -3.735875,1.519029 -1.26797,0.511207 -2.516418,1.075387 -3.808422,1.522385 -0.712174,0.246393 -2.169021,0.637545 -2.169021,0.637545 l -4.252232,1.842635 0.236235,-0.472469 2.384791,-0.925214 c 0,0 2.232241,-0.972332 3.357573,-1.436575 1.268391,-0.52326 2.552973,-1.006462 3.825294,-1.520094 1.33373,-0.538423 2.686171,-1.034812 3.992339,-1.637026 1.006368,-0.46399 2.073965,-0.850096 2.956668,-1.520097 1.14867,-0.871879 2.324602,-1.869621 2.939965,-3.173824 0.549069,-1.163698 0.517834,-3.825295 0.517834,-3.825295 l 0.217158,-2.037931 z"
       id="path932"
       sodipodi:nodetypes="caaaaaccccaaaaaccc" />
    <path
       style="display:inline;opacity:1;fill:#915422;fill-opacity:1;stroke:#000000;stroke-width:0;stroke-linecap:butt;stroke-linejoin:miter;stroke-miterlimit:4;stroke-dasharray:none;stroke-opacity:1"
       d="m 69.784902,36.824631 c 0,0 0.116886,2.768731 -0.428411,3.990286 -0.59173,1.325575 -1.757657,2.35843 -2.913103,3.237201 -0.950022,0.722538 -2.116954,1.10595 -3.20469,1.597309 -1.225101,0.553411 -2.489094,1.016364 -3.735875,1.519029 -1.26797,0.511207 -2.516418,1.075387 -3.808422,1.522385 -0.712174,0.246393 -2.169021,0.637545 -2.169021,0.637545 l -4.252232,1.842635 0.236235,-0.472469 2.384791,-0.925214 c 0,0 2.232241,-0.972332 3.357573,-1.436575 1.268391,-0.52326 2.552973,-1.006462 3.825294,-1.520094 1.33373,-0.538423 2.686171,-1.034812 3.992339,-1.637026 1.006368,-0.46399 2.073965,-0.850096 2.956668,-1.520097 1.14867,-0.871879 2.324602,-1.869621 2.939965,-3.173824 0.549069,-1.163698 0.517834,-3.825295 0.517834,-3.825295 l 0.217158,-2.037931 z"
       id="path932-9"
       sodipodi:nodetypes="caaaaaccccaaaaaccc" />
    <path
       style="display:inline;opacity:1;fill:#9a5a26;fill-opacity:1;stroke:#000000;stroke-width:0;stroke-linecap:butt;stroke-linejoin:miter;stroke-miterlimit:4;stroke-dasharray:none;stroke-opacity:1"
       d="m 79.907735,37.325761 c 0,0 0.116886,2.768731 -0.428411,3.990286 -0.59173,1.325575 -1.757657,2.35843 -2.913103,3.237201 -0.950022,0.722538 -2.116954,1.10595 -3.20469,1.597309 -1.225101,0.553411 -2.489094,1.016364 -3.735875,1.519029 -1.26797,0.511207 -2.516418,1.075387 -3.808422,1.522385 -0.712174,0.246393 -2.169021,0.637545 -2.169021,0.637545 l -4.252232,1.842635 0.236235,-0.472469 2.384791,-0.925214 c 0,0 2.232241,-0.972332 3.357573,-1.436575 1.268391,-0.52326 2.552973,-1.006462 3.825294,-1.520094 1.33373,-0.538423 2.686171,-1.034812 3.992339,-1.637026 1.006368,-0.46399 2.073965,-0.850096 2.956668,-1.520097 1.14867,-0.871879 2.324602,-1.869621 2.939965,-3.173824 0.549069,-1.163698 0.517834,-3.825295 0.517834,-3.825295 l 0.217158,-2.037931 z"
       id="path932-9-4"
       sodipodi:nodetypes="caaaaaccccaaaaaccc" />
    <path
       style="display:inline;opacity:1;fill:#9a5a26;fill-opacity:1;stroke:#000000;stroke-width:0;stroke-linecap:butt;stroke-linejoin:miter;stroke-miterlimit:4;stroke-dasharray:none;stroke-opacity:1"
       d="m 76.015553,37.135942 c 0,0 0.116886,2.768731 -0.428411,3.990286 -0.59173,1.325575 -1.757657,2.35843 -2.913103,3.237201 -0.950022,0.722538 -2.116954,1.10595 -3.20469,1.597309 -1.225101,0.553411 -2.489094,1.016364 -3.735875,1.519029 -1.26797,0.511207 -2.516418,1.075387 -3.808422,1.522385 -0.712174,0.246393 -2.169021,0.637545 -2.169021,0.637545 l -4.252232,1.842635 0.236235,-0.472469 2.384791,-0.925214 c 0,0 2.232241,-0.972332 3.357573,-1.436575 1.268391,-0.52326 2.552973,-1.006462 3.825294,-1.520094 1.33373,-0.538423 2.686171,-1.034812 3.992339,-1.637026 1.006368,-0.46399 2.073965,-0.850096 2.956668,-1.520097 1.14867,-0.871879 2.324602,-1.869621 2.939965,-3.173824 0.549069,-1.163698 0.517834,-3.825295 0.517834,-3.825295 l 0.217158,-2.037931 z"
       id="path932-9-4-0"
       sodipodi:nodetypes="caaaaaccccaaaaaccc" />
    <path
       style="display:inline;opacity:1;fill:#a4612a;fill-opacity:1;stroke:#000000;stroke-width:0;stroke-linecap:butt;stroke-linejoin:miter;stroke-miterlimit:4;stroke-dasharray:none;stroke-opacity:1"
       d="m 89.830116,39.296874 c 0,0 0.116886,2.768731 -0.428411,3.990286 -0.59173,1.325575 -1.757657,2.35843 -2.913103,3.237201 -0.950022,0.722538 -2.116954,1.10595 -3.20469,1.597309 -1.225101,0.553411 -2.489094,1.016364 -3.735875,1.519029 -1.26797,0.511207 -2.516418,1.075387 -3.808422,1.522385 -0.712174,0.246393 -2.169021,0.637545 -2.169021,0.637545 l -4.252232,1.842635 0.236235,-0.472469 2.384791,-0.925214 c 0,0 2.232241,-0.972332 3.357573,-1.436575 1.268391,-0.52326 2.552973,-1.006462 3.825294,-1.520094 1.33373,-0.538423 2.686171,-1.034812 3.992339,-1.637026 1.006368,-0.46399 2.073965,-0.850096 2.956668,-1.520097 1.14867,-0.871879 2.324602,-1.869621 2.939965,-3.173824 0.549069,-1.163698 0.517834,-3.825295 0.517834,-3.825295 l 0.217158,-2.037931 z"
       id="path932-4"
       sodipodi:nodetypes="caaaaaccccaaaaaccc" />
    <path
       style="display:inline;opacity:1;fill:#a8642c;fill-opacity:1;stroke:#000000;stroke-width:0;stroke-linecap:butt;stroke-linejoin:miter;stroke-miterlimit:4;stroke-dasharray:none;stroke-opacity:1"
       d="m 93.491141,40.424557 c 0,0 0.116886,2.768731 -0.428411,3.990286 -0.59173,1.325575 -1.757657,2.35843 -2.913103,3.237201 -0.950022,0.722538 -2.116954,1.10595 -3.20469,1.597309 -1.225101,0.553411 -2.489094,1.016364 -3.735875,1.519029 -1.26797,0.511207 -2.516418,1.075387 -3.808422,1.522385 -0.712174,0.246393 -2.169021,0.637545 -2.169021,0.637545 l -4.252232,1.842635 0.236235,-0.472469 2.384791,-0.925214 c 0,0 2.232241,-0.972332 3.357573,-1.436575 1.268391,-0.52326 2.552973,-1.006462 3.825294,-1.520094 1.33373,-0.538423 2.686171,-1.034812 3.992339,-1.637026 1.006368,-0.46399 2.073965,-0.850096 2.956668,-1.520097 1.14867,-0.871879 2.324602,-1.869621 2.939965,-3.173824 0.549069,-1.163698 0.517834,-3.825295 0.517834,-3.825295 l 0.217158,-2.037931 z"
       id="path932-4-2"
       sodipodi:nodetypes="caaaaaccccaaaaaccc" />
    <path
       style="display:inline;opacity:1;fill:#aa6c3a;fill-opacity:1;stroke:#000000;stroke-width:0;stroke-linecap:butt;stroke-linejoin:miter;stroke-miterlimit:4;stroke-dasharray:none;stroke-opacity:1"
       d="m 97.91502,42.170021 c 0,0 0.116886,2.768731 -0.428411,3.990286 -0.59173,1.325575 -1.757657,2.35843 -2.913103,3.237201 -0.950022,0.722538 -2.116954,1.10595 -3.20469,1.597309 -1.225101,0.553411 -2.489094,1.016364 -3.735875,1.519029 -1.26797,0.511207 -2.516418,1.075387 -3.808422,1.522385 -0.712174,0.246393 -2.169021,0.637545 -2.169021,0.637545 l -4.252232,1.842635 0.236235,-0.472469 2.384791,-0.925214 c 0,0 2.232241,-0.972332 3.357573,-1.436575 1.268391,-0.52326 2.552973,-1.006462 3.825294,-1.520094 1.33373,-0.538423 2.686171,-1.034812 3.992339,-1.637026 1.006368,-0.46399 2.073965,-0.850096 2.956668,-1.520097 1.14867,-0.871879 2.324602,-1.869621 2.939965,-3.173824 0.549069,-1.163698 0.517834,-3.825295 0.517834,-3.825295 l 0.217158,-2.037931 z"
       id="path932-4-2-7"
       sodipodi:nodetypes="caaaaaccccaaaaaccc" />
    <path
       style="display:inline;opacity:1;fill:#794216;fill-opacity:1;stroke:#000000;stroke-width:0;stroke-linecap:butt;stroke-linejoin:miter;stroke-miterlimit:4;stroke-dasharray:none;stroke-opacity:1"
       d="m 41.990806,37.394456 c 0,0 -0.07535,2.770173 -0.704033,3.950982 -0.68221,1.281359 -1.916941,2.230893 -3.130534,3.027441 -0.997831,0.654932 -2.188537,0.956516 -3.307722,1.371278 -1.260522,0.467141 -2.553571,0.841345 -3.832203,1.256359 -1.300361,0.422066 -2.584921,0.898331 -3.904807,1.254677 -0.727543,0.196424 -2.208004,0.485629 -2.208004,0.485629 l -4.369752,1.543386 0.268423,-0.454954 2.443199,-0.757645 c 0,0 2.294283,-0.815227 3.449094,-1.200332 1.301617,-0.434061 2.61661,-0.827038 3.92148,-1.251222 1.36785,-0.444657 2.751452,-0.846085 4.09623,-1.356291 1.036116,-0.3931 2.127913,-0.704258 3.054944,-1.311448 1.206355,-0.790141 2.448634,-1.703953 3.152937,-2.962353 0.628429,-1.12283 0.781804,-3.780188 0.781804,-3.780188 l 0.357928,-2.017971 z"
       id="path932-3"
       sodipodi:nodetypes="caaaaaccccaaaaaccc" />
    <path
       style="display:inline;opacity:1;fill:#774115;fill-opacity:1;stroke:#000000;stroke-width:0;stroke-linecap:butt;stroke-linejoin:miter;stroke-miterlimit:4;stroke-dasharray:none;stroke-opacity:1"
       d="m 35.971026,37.908163 c 0,0 -0.07536,2.770172 -0.704034,3.950981 -0.68221,1.28136 -1.916941,2.230893 -3.130534,3.027441 -0.99783,0.654932 -2.188537,0.956516 -3.307722,1.371278 -1.260522,0.467141 -2.553571,0.841345 -3.832202,1.256359 -1.300362,0.422066 -2.584922,0.898332 -3.904808,1.254677 -0.727543,0.196424 -2.208003,0.485629 -2.208003,0.485629 l -4.369753,1.543386 0.268423,-0.454953 2.443199,-0.757646 c 0,0 2.294283,-0.815227 3.449094,-1.200332 1.301618,-0.434061 2.61661,-0.827038 3.92148,-1.251222 1.367851,-0.444657 2.751453,-0.846085 4.09623,-1.356291 1.036116,-0.3931 2.127913,-0.704258 3.054944,-1.311448 1.206355,-0.790141 2.448633,-1.703953 3.152938,-2.962353 0.628429,-1.12283 0.781802,-3.780188 0.781802,-3.780188 l 0.357929,-2.017971 z"
       id="path932-9-4-4"
       sodipodi:nodetypes="caaaaaccccaaaaaccc" />
    <path
       style="display:inline;opacity:1;fill:#764015;fill-opacity:1;stroke:#000000;stroke-width:0;stroke-linecap:butt;stroke-linejoin:miter;stroke-miterlimit:4;stroke-dasharray:none;stroke-opacity:1"
       d="m 28.983752,38.103582 c 0,0 -0.194924,2.764333 -0.874011,3.916889 -0.736914,1.250701 -2.011501,2.146023 -3.258362,2.889415 -1.025185,0.611227 -2.227805,0.861106 -3.363859,1.227146 -1.279521,0.412266 -2.587524,0.730277 -3.882886,1.089682 -1.317377,0.365513 -2.621306,0.785856 -3.955351,1.084866 -0.735347,0.16482 -2.226917,0.389817 -2.226917,0.389817 L 6.9900354,50.054623 7.277857,49.611687 9.7514975,48.960265 c 0,0 2.3273505,-0.715382 3.4977155,-1.050253 1.319149,-0.377442 2.649886,-0.713261 3.971858,-1.080695 1.385778,-0.385168 2.785426,-0.726466 4.150984,-1.178118 1.052126,-0.347986 2.156343,-0.611702 3.108732,-1.178288 1.239354,-0.737305 2.519938,-1.596612 3.277933,-2.823421 0.676335,-1.094642 0.944331,-3.742897 0.944331,-3.742897 l 0.444747,-2.00063 z"
       id="path932-9-4-0-7"
       sodipodi:nodetypes="caaaaaccccaaaaaccc" />
    <path
       style="display:inline;opacity:1;fill:#80481a;fill-opacity:1;stroke:#000000;stroke-width:0;stroke-linecap:butt;stroke-linejoin:miter;stroke-miterlimit:4;stroke-dasharray:none;stroke-opacity:1"
       d="m 48.150269,37.582483 c 0,0 -0.07536,2.770173 -0.704032,3.950982 -0.682211,1.281359 -1.916944,2.230893 -3.130536,3.02744 -0.99783,0.654933 -2.188537,0.956517 -3.307722,1.371279 -1.260524,0.467141 -2.553572,0.841345 -3.832203,1.256359 -1.300362,0.422066 -2.584921,0.898331 -3.904807,1.254677 -0.727543,0.196424 -2.208004,0.485629 -2.208004,0.485629 l -4.369753,1.543386 0.268424,-0.454954 2.443199,-0.757646 c 0,0 2.294283,-0.815227 3.449094,-1.200331 1.301617,-0.434061 2.616609,-0.827038 3.92148,-1.251222 1.36785,-0.444657 2.751452,-0.846085 4.09623,-1.356291 1.036115,-0.3931 2.127911,-0.704259 3.054943,-1.311448 1.206355,-0.790142 2.448633,-1.703953 3.152938,-2.962354 0.628428,-1.122829 0.781802,-3.780187 0.781802,-3.780187 l 0.357931,-2.017971 z"
       id="path932-4-7"
       sodipodi:nodetypes="caaaaaccccaaaaaccc" />
    <path
       style="display:inline;opacity:1;fill:#844a1c;fill-opacity:1;stroke:#000000;stroke-width:0;stroke-linecap:butt;stroke-linejoin:miter;stroke-miterlimit:4;stroke-dasharray:none;stroke-opacity:1"
       d="m 55.13125,38.126401 c 0,0 -0.07535,2.770172 -0.704033,3.950981 -0.682211,1.28136 -1.916941,2.230894 -3.130533,3.027441 -0.997832,0.654933 -2.188539,0.956517 -3.307724,1.371279 -1.260522,0.46714 -2.553572,0.841344 -3.832202,1.256358 -1.300362,0.422067 -2.584921,0.898332 -3.904808,1.254677 -0.727543,0.196424 -2.208003,0.485629 -2.208003,0.485629 l -4.369753,1.543386 0.268424,-0.454953 2.443199,-0.757646 c 0,0 2.294283,-0.815227 3.449094,-1.200332 1.301617,-0.434061 2.616609,-0.827038 3.921481,-1.251221 1.367848,-0.444658 2.751451,-0.846085 4.096228,-1.356291 1.036117,-0.3931 2.127914,-0.704259 3.054946,-1.311448 1.206354,-0.790142 2.448632,-1.703953 3.152937,-2.962354 0.628429,-1.12283 0.781803,-3.780187 0.781803,-3.780187 l 0.357927,-2.017972 z"
       id="path932-4-2-9"
       sodipodi:nodetypes="caaaaaccccaaaaaccc" />
    <path
       style="display:inline;opacity:1;fill:#925422;fill-opacity:1;stroke:#000000;stroke-width:0;stroke-linecap:butt;stroke-linejoin:miter;stroke-miterlimit:4;stroke-dasharray:none;stroke-opacity:1"
       d="m 62.580521,38.116521 c 0,0 -0.07535,2.770173 -0.704033,3.950982 -0.682211,1.281359 -1.916942,2.230893 -3.130534,3.02744 -0.997829,0.654933 -2.188538,0.956517 -3.307721,1.371279 -1.260524,0.467141 -2.553571,0.841345 -3.832204,1.256359 -1.300359,0.422066 -2.584921,0.898331 -3.904806,1.254677 -0.727542,0.196424 -2.208005,0.485629 -2.208005,0.485629 l -4.369753,1.543386 0.268424,-0.454954 2.443199,-0.757646 c 0,0 2.294283,-0.815227 3.449093,-1.200331 1.301618,-0.434061 2.616611,-0.827038 3.921482,-1.251222 1.36785,-0.444657 2.751453,-0.846085 4.096228,-1.356291 1.036117,-0.3931 2.127914,-0.704258 3.054945,-1.311448 1.206355,-0.790141 2.448633,-1.703953 3.152937,-2.962354 0.628429,-1.122829 0.781804,-3.780187 0.781804,-3.780187 l 0.357928,-2.017971 z"
       id="path932-4-2-7-2"
       sodipodi:nodetypes="caaaaaccccaaaaaccc" />
    <path
       style="display:inline;opacity:1;fill:#6d3910;fill-opacity:1;stroke:#000000;stroke-width:0;stroke-linecap:butt;stroke-linejoin:miter;stroke-miterlimit:4;stroke-dasharray:none;stroke-opacity:1"
       d="m 23.195227,39.559892 c 0,0 -0.567329,2.712503 -1.396191,3.762521 -0.899436,1.139433 -2.28349,1.853974 -3.619507,2.421737 -1.09849,0.466822 -2.323865,0.551603 -3.499014,0.760487 -1.323549,0.235263 -2.662562,0.373283 -3.994654,0.554028 -1.3547287,0.183816 -2.7035582,0.423778 -4.0657998,0.539447 -0.7508901,0.06376 -2.2591881,0.08477 -2.2591881,0.08477 l -4.57471687,0.740768 0.3451317,-0.399897 2.53905357,-0.310571 c 0,0 2.4027682,-0.393745 3.607692,-0.567102 1.3581002,-0.195396 2.7220485,-0.347982 4.0815915,-0.53308 1.425162,-0.19403 2.858128,-0.342718 4.272254,-0.605358 1.089549,-0.202357 2.219301,-0.314168 3.239623,-0.746615 1.327754,-0.562747 2.712876,-1.240793 3.629964,-2.3537 0.818292,-0.993011 1.442314,-3.58061 1.442314,-3.58061 l 0.711476,-1.92201 z"
       id="path932-3-7"
       sodipodi:nodetypes="caaaaaccccaaaaaccc" />
    <path
       style="display:inline;opacity:1;fill:#67350d;fill-opacity:1;stroke:#000000;stroke-width:0;stroke-linecap:butt;stroke-linejoin:miter;stroke-miterlimit:4;stroke-dasharray:none;stroke-opacity:1"
       d="m 16.378352,40.129567 c 0,0 -1.533567,1.869139 -2.465272,2.626624 -1.036118,0.842375 -2.187546,1.571391 -3.419054,2.08765 -1.0454311,0.438254 -2.1947836,0.569101 -3.2985606,0.827305 -0.9494992,0.222114 -1.8981622,0.453102 -2.8587588,0.620845 -1.3467642,0.235177 -2.7035594,0.423779 -4.06580077,0.539447 -0.75089021,0.06376 -2.25918713,0.08477 -2.25918713,0.08477 l -4.5747179,0.740768 0.3451315,-0.399897 2.5390538,-0.310571 c 0,0 2.4027681,-0.393745 3.60769192,-0.567103 C 1.2869793,46.18401 2.6579853,46.07742 4.0104695,45.846326 4.9179565,45.691267 5.81331,45.47187 6.7125164,45.274377 c 1.1932635,-0.262078 2.444584,-0.346912 3.5737076,-0.813433 1.210433,-0.500114 2.307534,-1.267115 3.329289,-2.08643 0.942089,-0.755433 2.544797,-2.57835 2.544797,-2.57835 l 0.811703,-2.089053 z"
       id="path932-9-4-4-1"
       sodipodi:nodetypes="caaaaaccccaaaaaccc" />
    <path
       style="display:inline;opacity:1;fill:#60300a;fill-opacity:1;stroke:#000000;stroke-width:0;stroke-linecap:butt;stroke-linejoin:miter;stroke-miterlimit:4;stroke-dasharray:none;stroke-opacity:1"
       d="m 8.2016176,40.32427 c 0,0 -2.0551975,1.801882 -3.2658498,2.4025 -1.3381607,0.663875 -2.8479755,0.910059 -4.29830374,1.267764 -1.46591989,0.36155 -3.00077786,0.436018 -4.44210226,0.88571 -0.5551878,0.173218 -1.0297353,0.585927 -1.6014979,0.692349 -1.34406,0.250169 -2.7362007,-0.04495 -4.09815,-0.16402 -0.7507289,-0.06563 -2.2403879,-0.302949 -2.2403879,-0.302949 l -4.634004,-0.05273 0.408452,-0.334962 2.554756,0.12835 c 0,0 2.434707,0.02309 3.6515251,0.05841 1.371507,0.03981 2.7517348,0.347963 4.1126182,0.172995 0.7520733,-0.09669 1.4376388,-0.489274 2.1746813,-0.66741 1.4443891,-0.349093 2.94549144,-0.428699 4.3886658,-0.78278 1.32768,-0.325745 2.6940117,-0.610099 3.9122761,-1.230321 C 5.99559,41.800866 7.993761,40.051517 7.993761,40.051517 l 1.0297785,-1.771971 z"
       id="path932-9-4-0-7-3"
       sodipodi:nodetypes="caaaaaccccaaaaaccc" />
  </g>
</svg>
