<?xml version="1.0" encoding="UTF-8" standalone="no"?>
<svg
   xmlns:dc="http://purl.org/dc/elements/1.1/"
   xmlns:cc="http://creativecommons.org/ns#"
   xmlns:rdf="http://www.w3.org/1999/02/22-rdf-syntax-ns#"
   xmlns:svg="http://www.w3.org/2000/svg"
   xmlns="http://www.w3.org/2000/svg"
   xmlns:sodipodi="http://sodipodi.sourceforge.net/DTD/sodipodi-0.dtd"
   xmlns:inkscape="http://www.inkscape.org/namespaces/inkscape"
   width="70.126999mm"
   height="100mm"
   viewBox="0 0 70.126999 100"
   version="1.1"
   id="svg8"
   inkscape:version="1.0.1 (3bc2e813f5, 2020-09-07)"
   sodipodi:docname="wheels.svg">
  <defs
     id="defs2" />
  <sodipodi:namedview
     id="base"
     pagecolor="#ffffff"
     bordercolor="#666666"
     borderopacity="1.0"
     inkscape:pageopacity="0.0"
     inkscape:pageshadow="2"
     inkscape:zoom="0.98994949"
     inkscape:cx="280.90818"
     inkscape:cy="325.1617"
     inkscape:document-units="mm"
     inkscape:current-layer="layer2"
     inkscape:document-rotation="0"
     showgrid="false"
     inkscape:window-width="1920"
     inkscape:window-height="1017"
     inkscape:window-x="-8"
     inkscape:window-y="-8"
     inkscape:window-maximized="1"
     inkscape:snap-nodes="false"
     inkscape:snap-object-midpoints="true"
     units="mm"
     height="100mm" />
  <metadata
     id="metadata5">
    <rdf:RDF>
      <cc:Work
         rdf:about="">
        <dc:format>image/svg+xml</dc:format>
        <dc:type
           rdf:resource="http://purl.org/dc/dcmitype/StillImage" />
        <dc:title></dc:title>
      </cc:Work>
    </rdf:RDF>
  </metadata>
  <g
     inkscape:groupmode="layer"
     id="layer2"
     inkscape:label="main-trace"
     style="display:inline;opacity:1;mix-blend-mode:normal">
    <path
       id="path845"
       style="fill:#7c6146;fill-opacity:1;stroke:#ff0000;stroke-width:0"
       inkscape:transform-center-x="0.0011628089"
       inkscape:transform-center-y="0.071214796"
       d="M 35.035053,28.080627 19.435271,31.65026 6.9336835,41.637761 5.0008884e-7,56.061146 0.0124805,72.067889 l 6.953828,14.411218 12.5177025,9.96747 15.603813,3.553406 15.599782,-3.573596 12.505626,-9.98758 6.93367,-14.423309 -0.0125,-16.00269 -6.95383,-14.415276 -12.5177,-9.967465 z m 0.004,6.422002 12.819865,2.916922 10.281674,8.186703 5.71294,11.840847 0.008,13.142134 -5.6928,11.848952 -10.273619,8.20277 -12.811811,2.93703 L 22.263438,90.661067 11.981757,82.470387 6.2688245,70.633596 6.2610245,57.487408 11.95785,45.638453 22.227438,37.43569 Z" />
    <g
       id="g920"
       transform="translate(-43.851958,-19.680063)">
      <path
         sodipodi:type="star"
         style="display:inline;opacity:1;fill:#7c6146;fill-opacity:1;stroke:#ff0000;stroke-width:0"
         id="path845-8-8"
         sodipodi:sides="14"
         sodipodi:cx="78.915199"
         sodipodi:cy="83.720367"
         sodipodi:r1="9.0936937"
         sodipodi:r2="9.0570869"
         sodipodi:arg1="0.6724785"
         sodipodi:arg2="0.89687798"
         inkscape:flatsided="true"
         inkscape:rounded="0"
         inkscape:randomized="0"
         d="m 86.029015,89.385073 -3.162312,2.525587 -3.944957,0.903399 -3.946253,-0.897718 -3.165946,-2.521031 -1.758584,-3.645023 -0.0029,-4.047074 1.753334,-3.647551 3.162313,-2.525587 3.944956,-0.903399 3.946254,0.897718 3.165946,2.521031 1.758584,3.645023 0.0029,4.047073 z"
         inkscape:transform-center-x="0.00030456415"
         inkscape:transform-center-y="0.01800006" />
      <rect
         style="fill:#7c6146;fill-opacity:1;stroke:#ff0000;stroke-width:0"
         id="rect880"
         width="9.5772009"
         height="64.646095"
         x="74.188782"
         y="19.680063" />
    </g>
  </g>
</svg>
